# xmcd CD database file
#
# Track frame offsets:
#	150
#	11978
#	23840
#	35730
#	39375
#	53690
#	66715
#	79670
#	92240
#	96345
#	107215
#	111315
#	122595
#	134600
#	135805
#	139255
#	151455
#	164628
#	177615
#	190740
#	203478
#	217293
#	229140
#
# Disc length: 3212 seconds
#
# Revision: 0
# Processed by: cddbd v1.5.1PL0 Copyright (c) Steve Scherf et al.
# Submitted via: CDex 1.51
#
DISCID=5a0c8a17
DTITLE=Charlie Parker - The Complete Charlie Parker On Savoy Years (Disc-3)
DYEAR=1995
DGENRE=Jazz
TTITLE0=MILESTONE ORIGINAL TAKE.1
TTITLE1=MILESTONE NEW TAKE.2
TTITLE2=MILESTONE ORIGINAL TAKE.3
TTITLE3=LITTLE WILLIE LEAPS SHORT TAKE.1
TTITLE4=LITTLE WILLIE LEAPS NEW TAKE.2
TTITLE5=LITTLE WILLIE LEAPS ORIGINAL TAKE.3
TTITLE6=HALF NELSON NEW TAKE.1
TTITLE7=HALF NELSON ORIGINAL TAKE.2
TTITLE8=SIPPIN' AT BELLS SHORT TAKE.1
TTITLE9=SIPPIN' AT BELLS ORIGINAL TAKE.2
TTITLE10=SIPPIN' AT BELLS SHORT TAKE.3
TTITLE11=SIPPIN' AT BELLS NEW TAKE.4
TTITLE12=ANOTHER HAIR DO ORIGINAL TAKE
TTITLE13=ANOTHER HAIR DO SHORT TAKE.1
TTITLE14=ANOTHER HAIR DO SHORT TAKE.2
TTITLE15=ANOTHER HAIR DO ORIGINAL TAKE.3
TTITLE16=BLUEBIRD NEW TAKE.1
TTITLE17=BLUEBIRD TAKE.2
TTITLE18=BLUEBIRD ORIGINAL TAKE.3
TTITLE19=KLAUNSTANCE ORIGINAL TAKE
TTITLE20=BIRD GETS THE WARM NEW TAKE.1
TTITLE21=BIRD GETS THE WARM ORIGINAL TAKE.2
TTITLE22=BIRD GETS THE WARM ORIGINAL TAKE.3
EXTD=YEAR: 1995
EXTT0=
EXTT1=
EXTT2=
EXTT3=
EXTT4=
EXTT5=
EXTT6=
EXTT7=
EXTT8=
EXTT9=
EXTT10=
EXTT11=
EXTT12=
EXTT13=
EXTT14=
EXTT15=
EXTT16=
EXTT17=
EXTT18=
EXTT19=
EXTT20=
EXTT21=
EXTT22=
PLAYORDER=
